<mxfile host="app.diagrams.net" modified="2020-11-15T08:22:45.002Z" agent="5.0 (Windows)" etag="LeJaNnmOSi4TybjVxPdx" version="13.9.8" type="github">
  <diagram id="V2B5oRywF4Ml4Gtb_zJW" name="Page-1">
    <mxGraphModel dx="713" dy="753" grid="1" gridSize="10" guides="1" tooltips="1" connect="1" arrows="1" fold="1" page="1" pageScale="1" pageWidth="850" pageHeight="1100" math="0" shadow="0">
      <root>
        <mxCell id="0" />
        <mxCell id="1" parent="0" />
        <mxCell id="LjMKreUDeAWM01LF2d3q-1" value="&lt;pre style=&quot;background-color: #2d2a2e ; color: #fcfcfa ; font-family: &amp;#34;consolas&amp;#34; , monospace ; font-size: 9.0pt&quot;&gt;&lt;span style=&quot;color: #a9dc76&quot;&gt;MaterialApp&lt;/span&gt;&lt;/pre&gt;" style="rounded=1;whiteSpace=wrap;html=1;" vertex="1" parent="1">
          <mxGeometry x="340" y="90" width="120" height="60" as="geometry" />
        </mxCell>
        <mxCell id="LjMKreUDeAWM01LF2d3q-5" value="" style="edgeStyle=orthogonalEdgeStyle;rounded=0;orthogonalLoop=1;jettySize=auto;html=1;" edge="1" parent="1" source="LjMKreUDeAWM01LF2d3q-2" target="LjMKreUDeAWM01LF2d3q-4">
          <mxGeometry relative="1" as="geometry" />
        </mxCell>
        <mxCell id="LjMKreUDeAWM01LF2d3q-7" value="" style="edgeStyle=orthogonalEdgeStyle;rounded=0;orthogonalLoop=1;jettySize=auto;html=1;" edge="1" parent="1" source="LjMKreUDeAWM01LF2d3q-2" target="LjMKreUDeAWM01LF2d3q-6">
          <mxGeometry relative="1" as="geometry" />
        </mxCell>
        <mxCell id="LjMKreUDeAWM01LF2d3q-9" value="" style="edgeStyle=orthogonalEdgeStyle;rounded=0;orthogonalLoop=1;jettySize=auto;html=1;" edge="1" parent="1" source="LjMKreUDeAWM01LF2d3q-2" target="LjMKreUDeAWM01LF2d3q-8">
          <mxGeometry relative="1" as="geometry" />
        </mxCell>
        <mxCell id="LjMKreUDeAWM01LF2d3q-2" value="&lt;pre style=&quot;background-color: #2d2a2e ; color: #fcfcfa ; font-family: &amp;#34;consolas&amp;#34; , monospace ; font-size: 9.0pt&quot;&gt;&lt;span style=&quot;color: #a9dc76&quot;&gt;Scaffold&lt;/span&gt;&lt;/pre&gt;" style="rounded=1;whiteSpace=wrap;html=1;" vertex="1" parent="1">
          <mxGeometry x="340" y="190" width="120" height="60" as="geometry" />
        </mxCell>
        <mxCell id="LjMKreUDeAWM01LF2d3q-3" value="" style="endArrow=classic;html=1;exitX=0.5;exitY=1;exitDx=0;exitDy=0;entryX=0.5;entryY=0;entryDx=0;entryDy=0;" edge="1" parent="1" source="LjMKreUDeAWM01LF2d3q-1" target="LjMKreUDeAWM01LF2d3q-2">
          <mxGeometry width="50" height="50" relative="1" as="geometry">
            <mxPoint x="410" y="410" as="sourcePoint" />
            <mxPoint x="460" y="360" as="targetPoint" />
          </mxGeometry>
        </mxCell>
        <mxCell id="LjMKreUDeAWM01LF2d3q-4" value="&lt;pre style=&quot;background-color: #2d2a2e ; color: #fcfcfa ; font-family: &amp;#34;consolas&amp;#34; , monospace ; font-size: 9.0pt&quot;&gt;&lt;span style=&quot;color: #f59762 ; font-style: italic&quot;&gt;backgroundColor&lt;/span&gt;&lt;/pre&gt;" style="whiteSpace=wrap;html=1;rounded=1;" vertex="1" parent="1">
          <mxGeometry x="140" y="190" width="120" height="60" as="geometry" />
        </mxCell>
        <mxCell id="LjMKreUDeAWM01LF2d3q-11" value="" style="edgeStyle=orthogonalEdgeStyle;rounded=0;orthogonalLoop=1;jettySize=auto;html=1;" edge="1" parent="1" source="LjMKreUDeAWM01LF2d3q-6" target="LjMKreUDeAWM01LF2d3q-10">
          <mxGeometry relative="1" as="geometry" />
        </mxCell>
        <mxCell id="LjMKreUDeAWM01LF2d3q-6" value="&lt;pre style=&quot;background-color: #2d2a2e ; color: #fcfcfa ; font-family: &amp;#34;consolas&amp;#34; , monospace ; font-size: 9.0pt&quot;&gt;&lt;span style=&quot;color: #f59762 ; font-style: italic&quot;&gt;body&lt;/span&gt;&lt;/pre&gt;" style="whiteSpace=wrap;html=1;rounded=1;" vertex="1" parent="1">
          <mxGeometry x="540" y="190" width="120" height="60" as="geometry" />
        </mxCell>
        <mxCell id="LjMKreUDeAWM01LF2d3q-17" value="" style="edgeStyle=orthogonalEdgeStyle;rounded=0;orthogonalLoop=1;jettySize=auto;html=1;" edge="1" parent="1" source="LjMKreUDeAWM01LF2d3q-8" target="LjMKreUDeAWM01LF2d3q-16">
          <mxGeometry relative="1" as="geometry" />
        </mxCell>
        <mxCell id="LjMKreUDeAWM01LF2d3q-8" value="&lt;pre style=&quot;background-color: #2d2a2e ; color: #fcfcfa ; font-family: &amp;#34;consolas&amp;#34; , monospace ; font-size: 9.0pt&quot;&gt;&lt;span style=&quot;color: #f59762 ; font-style: italic&quot;&gt;appBar&lt;/span&gt;&lt;/pre&gt;" style="whiteSpace=wrap;html=1;rounded=1;" vertex="1" parent="1">
          <mxGeometry x="340" y="330" width="120" height="60" as="geometry" />
        </mxCell>
        <mxCell id="LjMKreUDeAWM01LF2d3q-13" value="" style="edgeStyle=orthogonalEdgeStyle;rounded=0;orthogonalLoop=1;jettySize=auto;html=1;" edge="1" parent="1" source="LjMKreUDeAWM01LF2d3q-10" target="LjMKreUDeAWM01LF2d3q-12">
          <mxGeometry relative="1" as="geometry" />
        </mxCell>
        <mxCell id="LjMKreUDeAWM01LF2d3q-10" value="&lt;pre style=&quot;background-color: #2d2a2e ; color: #fcfcfa ; font-family: &amp;#34;consolas&amp;#34; , monospace ; font-size: 9.0pt&quot;&gt;&lt;span style=&quot;color: #a9dc76&quot;&gt;Center&lt;/span&gt;&lt;/pre&gt;" style="whiteSpace=wrap;html=1;rounded=1;" vertex="1" parent="1">
          <mxGeometry x="540" y="330" width="120" height="60" as="geometry" />
        </mxCell>
        <mxCell id="LjMKreUDeAWM01LF2d3q-15" value="" style="edgeStyle=orthogonalEdgeStyle;rounded=0;orthogonalLoop=1;jettySize=auto;html=1;" edge="1" parent="1" source="LjMKreUDeAWM01LF2d3q-12" target="LjMKreUDeAWM01LF2d3q-14">
          <mxGeometry relative="1" as="geometry" />
        </mxCell>
        <mxCell id="LjMKreUDeAWM01LF2d3q-12" value="&lt;pre style=&quot;background-color: #2d2a2e ; color: #fcfcfa ; font-family: &amp;#34;consolas&amp;#34; , monospace ; font-size: 9.0pt&quot;&gt;&lt;span style=&quot;color: #a9dc76&quot;&gt;Image&lt;/span&gt;&lt;/pre&gt;" style="whiteSpace=wrap;html=1;rounded=1;" vertex="1" parent="1">
          <mxGeometry x="540" y="470" width="120" height="60" as="geometry" />
        </mxCell>
        <mxCell id="LjMKreUDeAWM01LF2d3q-14" value="&lt;pre style=&quot;background-color: #2d2a2e ; color: #fcfcfa ; font-family: &amp;#34;consolas&amp;#34; , monospace ; font-size: 9.0pt&quot;&gt;&lt;span style=&quot;color: #a9dc76&quot;&gt;NetworkImage&lt;/span&gt;&lt;/pre&gt;" style="whiteSpace=wrap;html=1;rounded=1;" vertex="1" parent="1">
          <mxGeometry x="540" y="610" width="120" height="60" as="geometry" />
        </mxCell>
        <mxCell id="LjMKreUDeAWM01LF2d3q-19" value="" style="edgeStyle=orthogonalEdgeStyle;rounded=0;orthogonalLoop=1;jettySize=auto;html=1;" edge="1" parent="1" source="LjMKreUDeAWM01LF2d3q-16" target="LjMKreUDeAWM01LF2d3q-18">
          <mxGeometry relative="1" as="geometry" />
        </mxCell>
        <mxCell id="LjMKreUDeAWM01LF2d3q-16" value="&lt;pre style=&quot;background-color: #2d2a2e ; color: #fcfcfa ; font-family: &amp;#34;consolas&amp;#34; , monospace ; font-size: 9.0pt&quot;&gt;&lt;span style=&quot;color: #f59762 ; font-style: italic&quot;&gt;title&lt;/span&gt;&lt;/pre&gt;" style="whiteSpace=wrap;html=1;rounded=1;" vertex="1" parent="1">
          <mxGeometry x="340" y="470" width="120" height="60" as="geometry" />
        </mxCell>
        <mxCell id="LjMKreUDeAWM01LF2d3q-18" value="&lt;pre style=&quot;background-color: #2d2a2e ; color: #fcfcfa ; font-family: &amp;#34;consolas&amp;#34; , monospace ; font-size: 9.0pt&quot;&gt;&lt;span style=&quot;color: #f59762 ; font-style: italic&quot;&gt;backgroundColor&lt;/span&gt;&lt;/pre&gt;" style="whiteSpace=wrap;html=1;rounded=1;" vertex="1" parent="1">
          <mxGeometry x="340" y="610" width="120" height="60" as="geometry" />
        </mxCell>
      </root>
    </mxGraphModel>
  </diagram>
</mxfile>
